<?xml version="1.0" encoding="UTF-8" standalone="no"?>
<!-- Created with Inkscape (http://www.inkscape.org/) -->

<svg
   xmlns:dc="http://purl.org/dc/elements/1.1/"
   xmlns:cc="http://creativecommons.org/ns#"
   xmlns:rdf="http://www.w3.org/1999/02/22-rdf-syntax-ns#"
   xmlns:svg="http://www.w3.org/2000/svg"
   xmlns="http://www.w3.org/2000/svg"
   xmlns:sodipodi="http://sodipodi.sourceforge.net/DTD/sodipodi-0.dtd"
   xmlns:inkscape="http://www.inkscape.org/namespaces/inkscape"
   width="744.09448819"
   height="1052.3622047"
   id="svg2"
   version="1.1"
   inkscape:version="0.48.3.1 r9886"
   sodipodi:docname="2bitmult.eps">
  <sodipodi:namedview
     id="base"
     pagecolor="#ffffff"
     bordercolor="#666666"
     borderopacity="1.0"
     inkscape:pageopacity="0.0"
     inkscape:pageshadow="2"
     inkscape:zoom="0.7"
     inkscape:cx="350"
     inkscape:cy="520"
     inkscape:document-units="px"
     inkscape:current-layer="layer1"
     showgrid="true"
     inkscape:snap-global="false"
     inkscape:window-width="936"
     inkscape:window-height="738"
     inkscape:window-x="221"
     inkscape:window-y="41"
     inkscape:window-maximized="0">
    <inkscape:grid
       id="grid3225"
       type="xygrid" />
  </sodipodi:namedview>
  <defs
     id="defs4">
    <clipPath
       clipPathUnits="userSpaceOnUse"
       id="clipPath3020">
      <path
         d="m 0,2508.02 3570,0 0,-2500.00047 -3570,0 L 0,2508.02 z"
         id="path3022" />
    </clipPath>
  </defs>
  <metadata
     id="metadata7">
    <rdf:RDF>
      <cc:Work
         rdf:about="">
        <dc:format>image/svg+xml</dc:format>
        <dc:type
           rdf:resource="http://purl.org/dc/dcmitype/StillImage" />
        <dc:title></dc:title>
      </cc:Work>
    </rdf:RDF>
  </metadata>
  <g
     id="layer1"
     inkscape:groupmode="layer"
     inkscape:label="Layer 1">
    <g
       transform="matrix(0.125,0,0,-0.125,158.01175,686.8448)"
       id="g3014">
      <g
         id="g3016">
        <g
           clip-path="url(#clipPath3020)"
           id="g3018">
          <path
             id="path3024"
             style="fill:none;stroke:#000000;stroke-width:10.56000042;stroke-linecap:butt;stroke-linejoin:miter;stroke-miterlimit:4;stroke-opacity:1;stroke-dasharray:none"
             d="m 1834.61,357.938 350.699,0 0,350.699 -350.699,0 0,-350.699 z"
             inkscape:connector-curvature="0" />
          <path
             id="path3026"
             style="fill:none;stroke:#000000;stroke-width:8;stroke-linecap:butt;stroke-linejoin:miter;stroke-miterlimit:4;stroke-opacity:1;stroke-dasharray:none"
             d="m 674.41,940.086 287.309,0"
             inkscape:connector-curvature="0" />
          <path
             id="path3028"
             style="fill:none;stroke:#000000;stroke-width:10.56000042;stroke-linecap:butt;stroke-linejoin:miter;stroke-miterlimit:4;stroke-opacity:1;stroke-dasharray:none"
             d="m 961.719,2103.34 350.703,0 0,350.699 -350.703,0 0,-350.699 z"
             inkscape:connector-curvature="0" />
          <path
             id="path3030"
             style="fill:none;stroke:#000000;stroke-width:8;stroke-linecap:butt;stroke-linejoin:miter;stroke-miterlimit:4;stroke-opacity:1;stroke-dasharray:none"
             d="m 331.371,2316.07 632.418,0"
             inkscape:connector-curvature="0" />
          <path
             id="path3032"
             style="fill:none;stroke:#000000;stroke-width:10.56000042;stroke-linecap:butt;stroke-linejoin:miter;stroke-miterlimit:4;stroke-opacity:1;stroke-dasharray:none"
             d="m 961.719,1384.74 350.703,0 0,350.699 -350.703,0 0,-350.699 z"
             inkscape:connector-curvature="0" />
          <path
             id="path3034"
             style="fill:none;stroke:#000000;stroke-width:8;stroke-linecap:butt;stroke-linejoin:miter;stroke-miterlimit:4;stroke-opacity:1;stroke-dasharray:none"
             d="m 331.371,1597.47 632.418,0"
             inkscape:connector-curvature="0" />
          <path
             id="path3036"
             style="fill:none;stroke:#000000;stroke-width:10.56000042;stroke-linecap:butt;stroke-linejoin:miter;stroke-miterlimit:4;stroke-opacity:1;stroke-dasharray:none"
             d="m 961.719,694.469 350.703,0 0,350.66 -350.703,0 0,-350.66 z"
             inkscape:connector-curvature="0" />
          <path
             id="path3038"
             style="fill:none;stroke:#000000;stroke-width:8;stroke-linecap:butt;stroke-linejoin:miter;stroke-miterlimit:4;stroke-opacity:1;stroke-dasharray:none"
             d="m 331.371,763.176 632.418,0"
             inkscape:connector-curvature="0" />
          <path
             id="path3040"
             style="fill:none;stroke:#000000;stroke-width:10.56000042;stroke-linecap:butt;stroke-linejoin:miter;stroke-miterlimit:4;stroke-opacity:1;stroke-dasharray:none"
             d="m 961.719,15.2461 350.703,0 0,350.699 -350.703,0 0,-350.699 z"
             inkscape:connector-curvature="0" />
          <path
             id="path3042"
             style="fill:none;stroke:#000000;stroke-width:8;stroke-linecap:butt;stroke-linejoin:miter;stroke-miterlimit:4;stroke-opacity:1;stroke-dasharray:none"
             d="m 331.371,131.969 632.418,0"
             inkscape:connector-curvature="0" />
          <path
             id="path3044"
             style="fill:none;stroke:#000000;stroke-width:8;stroke-linecap:butt;stroke-linejoin:miter;stroke-miterlimit:4;stroke-opacity:1;stroke-dasharray:none"
             d="m 571.602,1448.92 390.117,0"
             inkscape:connector-curvature="0" />
          <path
             id="path3046"
             style="fill:none;stroke:#000000;stroke-width:8;stroke-linecap:butt;stroke-linejoin:miter;stroke-miterlimit:4;stroke-opacity:1;stroke-dasharray:none"
             d="m 463.09,292.355 499.058,0"
             inkscape:connector-curvature="0" />
          <path
             id="path3048"
             style="fill:none;stroke:#000000;stroke-width:8;stroke-linecap:butt;stroke-linejoin:miter;stroke-miterlimit:4;stroke-opacity:1;stroke-dasharray:none"
             d="M 463.281,2316.07 463.238,292.355"
             inkscape:connector-curvature="0" />
          <path
             id="path3050"
             style="fill:none;stroke:#000000;stroke-width:8;stroke-linecap:butt;stroke-linejoin:miter;stroke-miterlimit:4;stroke-opacity:1;stroke-dasharray:none"
             d="m 571.602,1455.99 0,-1324.021"
             inkscape:connector-curvature="0" />
          <path
             id="path3052"
             style="fill:none;stroke:#000000;stroke-width:8;stroke-linecap:butt;stroke-linejoin:miter;stroke-miterlimit:4;stroke-opacity:1;stroke-dasharray:none"
             d="m 674.41,1590.75 0,-650.664"
             inkscape:connector-curvature="0" />
          <path
             id="path3054"
             style="fill:none;stroke:#000000;stroke-width:8;stroke-linecap:butt;stroke-linejoin:miter;stroke-miterlimit:4;stroke-opacity:1;stroke-dasharray:none"
             d="m 791.949,2165.83 0,-1402.654"
             inkscape:connector-curvature="0" />
          <path
             id="path3056"
             style="fill:none;stroke:#000000;stroke-width:8;stroke-linecap:butt;stroke-linejoin:miter;stroke-miterlimit:4;stroke-opacity:1;stroke-dasharray:none"
             d="m 791.949,2165.83 169.77,0"
             inkscape:connector-curvature="0" />
          <path
             id="path3058"
             style="fill:none;stroke:#000000;stroke-width:10.56000042;stroke-linecap:butt;stroke-linejoin:miter;stroke-miterlimit:4;stroke-opacity:1;stroke-dasharray:none"
             d="m 2716.29,800.758 350.699,0 0,350.699 -350.699,0 0,-350.699 z"
             inkscape:connector-curvature="0" />
          <path
             id="path3060"
             style="fill:none;stroke:#000000;stroke-width:8;stroke-linecap:butt;stroke-linejoin:miter;stroke-miterlimit:4;stroke-opacity:1;stroke-dasharray:none"
             d="m 1312.42,888.098 283.17,0 0,-320"
             inkscape:connector-curvature="0" />
          <path
             id="path3062"
             style="fill:none;stroke:#000000;stroke-width:8;stroke-linecap:butt;stroke-linejoin:miter;stroke-miterlimit:4;stroke-opacity:1;stroke-dasharray:none"
             d="m 1595.59,572.117 244.21,0"
             inkscape:connector-curvature="0" />
          <path
             id="path3064"
             style="fill:none;stroke:#000000;stroke-width:8;stroke-linecap:butt;stroke-linejoin:miter;stroke-miterlimit:4;stroke-opacity:1;stroke-dasharray:none"
             d="m 1312.54,148.098 282.93,0"
             inkscape:connector-curvature="0" />
          <path
             id="path3066"
             style="fill:none;stroke:#000000;stroke-width:8;stroke-linecap:butt;stroke-linejoin:miter;stroke-miterlimit:4;stroke-opacity:1;stroke-dasharray:none"
             d="m 1599.57,466.496 0,-321.719"
             inkscape:connector-curvature="0" />
          <path
             id="path3068"
             style="fill:none;stroke:#000000;stroke-width:8;stroke-linecap:butt;stroke-linejoin:miter;stroke-miterlimit:4;stroke-opacity:1;stroke-dasharray:none"
             d="m 1595.59,466.648 244.21,0"
             inkscape:connector-curvature="0" />
          <path
             id="path3070"
             style="fill:none;stroke:#000000;stroke-width:8;stroke-linecap:butt;stroke-linejoin:miter;stroke-miterlimit:4;stroke-opacity:1;stroke-dasharray:none"
             d="m 2475.59,1046.42 244.21,0"
             inkscape:connector-curvature="0" />
          <path
             id="path3072"
             style="fill:none;stroke:#000000;stroke-width:10.56000042;stroke-linecap:butt;stroke-linejoin:miter;stroke-miterlimit:4;stroke-opacity:1;stroke-dasharray:none"
             d="m 2716.29,1761.3 350.699,0 0,350.699 -350.699,0 0,-350.699 z"
             inkscape:connector-curvature="0" />
          <path
             id="path3074"
             style="fill:none;stroke:#000000;stroke-width:8;stroke-linecap:butt;stroke-linejoin:miter;stroke-miterlimit:4;stroke-opacity:1;stroke-dasharray:none"
             d="m 1314.22,1571.11 1174.49,0"
             inkscape:connector-curvature="0" />
          <path
             id="path3076"
             style="fill:none;stroke:#000000;stroke-width:8;stroke-linecap:butt;stroke-linejoin:miter;stroke-miterlimit:4;stroke-opacity:1;stroke-dasharray:none"
             d="m 2483.32,1870.01 0,-823.59"
             inkscape:connector-curvature="0" />
          <path
             id="path3078"
             style="fill:none;stroke:#000000;stroke-width:8;stroke-linecap:butt;stroke-linejoin:miter;stroke-miterlimit:4;stroke-opacity:1;stroke-dasharray:none"
             d="m 2477.27,1870.01 244.21,0"
             inkscape:connector-curvature="0" />
          <path
             id="path3080"
             style="fill:none;stroke:#000000;stroke-width:8;stroke-linecap:butt;stroke-linejoin:miter;stroke-miterlimit:4;stroke-opacity:1;stroke-dasharray:none"
             d="m 1312.42,2274.27 1164.42,0"
             inkscape:connector-curvature="0" />
          <path
             id="path3082"
             style="fill:none;stroke:#000000;stroke-width:8;stroke-linecap:butt;stroke-linejoin:miter;stroke-miterlimit:4;stroke-opacity:1;stroke-dasharray:none"
             d="m 2476.84,2274.27 0,-248.16"
             inkscape:connector-curvature="0" />
          <path
             id="path3084"
             style="fill:none;stroke:#000000;stroke-width:8;stroke-linecap:butt;stroke-linejoin:miter;stroke-miterlimit:4;stroke-opacity:1;stroke-dasharray:none"
             d="m 2472.07,2020.68 244.22,0"
             inkscape:connector-curvature="0" />
          <path
             id="path3086"
             style="fill:none;stroke:#000000;stroke-width:8;stroke-linecap:butt;stroke-linejoin:miter;stroke-miterlimit:4;stroke-opacity:1;stroke-dasharray:none"
             d="m 2180.27,517.898 303.05,0"
             inkscape:connector-curvature="0" />
          <path
             id="path3088"
             style="fill:none;stroke:#000000;stroke-width:8;stroke-linecap:butt;stroke-linejoin:miter;stroke-miterlimit:4;stroke-opacity:1;stroke-dasharray:none"
             d="m 2483.32,932.816 0,-414.918"
             inkscape:connector-curvature="0" />
          <path
             id="path3090"
             style="fill:none;stroke:#000000;stroke-width:8;stroke-linecap:butt;stroke-linejoin:miter;stroke-miterlimit:4;stroke-opacity:1;stroke-dasharray:none"
             d="m 2479.26,932.816 240.12,0"
             inkscape:connector-curvature="0" />
          <path
             id="path3092"
             style="fill:none;stroke:#000000;stroke-width:8;stroke-linecap:butt;stroke-linejoin:miter;stroke-miterlimit:4;stroke-opacity:1;stroke-dasharray:none"
             d="m 3066.99,1920.09 204.65,0"
             inkscape:connector-curvature="0" />
          <path
             id="path3094"
             style="fill:none;stroke:#000000;stroke-width:8;stroke-linecap:butt;stroke-linejoin:miter;stroke-miterlimit:4;stroke-opacity:1;stroke-dasharray:none"
             d="m 3066.99,976.105 204.65,0"
             inkscape:connector-curvature="0" />
          <path
             id="path3096"
             style="fill:#000000;fill-opacity:1;fill-rule:nonzero;stroke:none"
             d="m 120.66,2396.77 -0.582,0.93 -0.59,0.86 -0.699,0.94 -0.59,0.86 -0.66,0.82 -0.777,0.78 -0.672,0.86 -0.781,0.74 -0.86,0.79 -0.738,0.78 -0.859,0.74 -0.864,0.7 -0.816,0.67 -0.863,0.66 -0.93,0.62 -0.938,0.59 -1.019,0.59 -0.942,0.5 -1.011,0.59 -1.02,0.43 -1.129,0.43 -1.019,0.43 -1.09,0.43 -1.211,0.35 -1.0898,0.31 -1.1797,0.28 -1.211,0.23 -1.289,0.2 -1.1719,0.15 -1.2891,0.08 -1.3203,0.08 -1.289,0 0,-8.24 c 20.7378,0 26.4418,-22.43 26.4418,-25.75 0,-1.21 -0.704,-3.32 -0.942,-4.18 l -13.941,-55.35 c -2.0276,-8.4 -8.5198,-14.18 -15.0393,-20 -2.6602,-2.18 -14.6485,-11.79 -27.3789,-11.79 -10.9024,0 -21.5313,7.73 -21.5313,28.75 0,15.82 8.5196,48.36 15.4688,60.19 13.5234,23.71 28.6719,28.13 36.9219,28.13 l 0,8.24 c -37.8594,0 -76.4493,-41.72 -76.4493,-84.34 0,-28.75 19.3008,-49.14 44.8086,-49.14 15.9688,0 30.1914,9.1 41.9925,20.67 5.699,-17.78 22.886,-20.67 30.539,-20.67 10.629,0 18.129,6.45 23.398,15.63 6.531,11.6 10.352,28.43 10.352,29.61 0,3.9 -3.821,3.9 -4.68,3.9 -4.223,0 -4.5,-1.17 -6.449,-9.18 -3.594,-14.18 -9.371,-31.79 -21.684,-31.79 -7.726,0 -9.879,6.56 -9.879,14.53 0,5.04 2.461,15.82 4.61,23.47 1.953,8.01 5,20.08 6.441,26.61 l 5.899,22.53 c 1.839,7.74 5.242,21.68 5.242,23.13 0,6.56 -5.242,9.45 -9.922,9.45 -5.039,0 -11.918,-3.59 -13.719,-11.83 z"
             inkscape:connector-curvature="0" />
          <path
             id="path3098"
             style="fill:#000000;fill-opacity:1;fill-rule:nonzero;stroke:none"
             d="m 306.641,2308.52 0,3.33 -0.082,2.03 0,2.18 -0.11,2.31 -0.16,2.58 -0.238,2.69 -0.27,2.74 -0.351,2.97 -1.02,5.93 -0.66,3.17 -0.859,3.04 -0.86,3.17 -1.09,3.12 -1.171,3.17 -1.372,2.97 -1.636,3.04 -1.684,2.93 -1.957,2.78 -2.141,2.73 -2.269,2.54 -1.289,1.21 -1.293,1.17 -1.359,1.13 -1.45,1.1 -3.05,2.03 -1.598,0.94 -1.723,0.86 -1.679,0.86 -1.79,0.74 -1.96,0.7 -1.872,0.67 -2.027,0.5 -2.152,0.51 -2.11,0.43 -2.308,0.43 -2.301,0.23 -2.379,0.2 -2.461,0.16 -2.539,0 0,-6.96 c 15.617,0 26.949,-8 31.129,-22.89 3.051,-10.78 3.051,-28.47 3.051,-40.9 0,-14.37 0,-31.56 -3.25,-44.29 -5.582,-20.59 -22.422,-23.64 -30.93,-23.64 -7.82,0 -25.672,2.62 -30.941,24.07 -2.891,11.4 -3.239,26.52 -3.239,43.86 0,15.67 0,30.28 3.469,42.35 5.36,17.77 21.68,21.44 30.711,21.44 l 0,6.96 c -55.281,0 -55.281,-57.97 -55.281,-73.29 0,-15.39 0,-72.46 55.281,-72.46 55.27,0 55.27,57.07 55.27,72.46 z"
             inkscape:connector-curvature="0" />
          <path
             id="path3100"
             style="fill:#000000;fill-opacity:1;fill-rule:nonzero;stroke:none"
             d="m 3562.85,1859.7 0,3.28 -0.08,2.07 0,2.19 -0.07,2.3 -0.2,2.54 -0.23,2.73 -0.28,2.74 -0.31,2.97 -0.51,2.97 -0.55,2.96 -0.66,3.17 -0.86,3.05 -0.86,3.16 -1.09,3.12 -1.17,3.17 -1.37,2.97 -1.6,3.04 -1.72,2.89 -1.95,2.82 -2.11,2.73 -2.31,2.54 -1.29,1.21 -1.29,1.17 -1.32,1.1 -1.45,1.13 -1.56,1.02 -1.53,1.01 -1.6,0.94 -1.72,0.86 -1.68,0.82 -1.79,0.78 -1.96,0.66 -1.87,0.71 -2.03,0.5 -2.15,0.51 -2.11,0.43 -2.3,0.43 -2.27,0.24 -2.38,0.19 -2.5,0.16 -2.54,0 0,-6.99 c 15.66,0 26.95,-7.97 31.13,-22.86 3.05,-10.82 3.05,-28.47 3.05,-40.89 0,-14.38 0,-31.57 -3.24,-44.3 -5.59,-20.59 -22.43,-23.63 -30.94,-23.63 -7.81,0 -25.67,2.61 -30.94,24.06 -2.89,11.37 -3.24,26.52 -3.24,43.87 0,15.62 0,30.27 3.48,42.34 5.35,17.77 21.67,21.41 30.7,21.41 l 0,6.99 c -55.28,0 -55.28,-58.01 -55.28,-73.28 0,-15.39 0,-72.46 55.28,-72.46 55.27,0 55.27,57.07 55.27,72.46 z"
             inkscape:connector-curvature="0" />
          <path
             id="path3102"
             style="fill:#000000;fill-opacity:1;fill-rule:nonzero;stroke:none"
             d="m 3307.66,952.82 1.87,1.719 1.76,1.602 1.8,1.558 1.68,1.531 1.64,1.481 1.64,1.41 1.52,1.399 1.48,1.332 1.49,1.289 1.48,1.211 1.41,1.168 1.41,1.218 1.32,1.09 1.41,1.172 2.62,2.07 2.5,2.071 2.46,1.879 2.42,1.871 2.38,1.839 4.81,3.551 2.46,1.879 2.46,1.762 c 0,0.308 22.81,17.138 36.13,28.588 35.04,29.57 43.21,44.8 43.21,45.94 0,3.2 -3.4,3.2 -4.11,3.2 -2.57,0 -3.67,-0.59 -5.54,-3.48 -11.02,-15.19 -18.75,-20.31 -27.7,-20.31 -8.9,0 -13.28,4.81 -18.83,10.16 -6.95,7.38 -13.16,13.63 -25.46,13.63 -27.66,0 -44.61,-29.45 -44.61,-36.13 0,-1.6 1.05,-3.44 4.45,-3.44 3.32,0 3.98,1.6 4.73,3.44 7.03,14.65 28.47,14.96 31.36,14.96 7.78,0 14.81,-2.31 23.24,-4.77 14.81,-4.76 18.91,-4.76 28.52,-4.76 -13.32,-13.64 -44.37,-36.571 -51.25,-41.598 l -33.28,-26.653 c -25.12,-21.25 -38.09,-39.328 -38.09,-41.558 0,-3.2 3.71,-3.2 4.38,-3.2 3.05,0 3.71,0.618 5.94,4.059 8.59,11.172 19.57,19.77 31.4,19.77 8.52,0 12.23,-2.93 21.41,-12.032 6.37,-6.718 12.97,-11.797 23.55,-11.797 36.6,0 58.01,40.309 58.01,48.868 0,1.562 -1.48,3.16 -4.37,3.16 -3.4,0 -4.07,-1.84 -5.24,-4.141 -8.44,-20.629 -32.03,-26.558 -44.3,-26.558 -7.26,0 -14.02,1.871 -21.79,4.101 -12.46,4.059 -18.01,5.348 -25.78,5.348 -0.75,0 -6.61,0 -10,-0.899 z"
             inkscape:connector-curvature="0" />
          <path
             id="path3104"
             style="fill:#000000;fill-opacity:1;fill-rule:nonzero;stroke:none"
             d="m 96.9102,915.359 0.121,0.082 0,0.188 0.0782,0 0,0.16 0.082,0.16 0,0.192 0.0781,0.16 0,0.148 0.0703,0.199 0.1211,0.161 0,0.152 0.0782,0.199 0,0.231 0.082,0.347 0.1484,0.434 0,0.156 0.0821,0.274 0,0.16 0.1172,0.16 0,0.187 0.082,0.161 0,0.351 0.0703,0 0,0.43 c 0,1.519 -1.2109,4.258 -4.7617,4.258 -5.9375,0 -30.5078,-2.387 -37.8477,-3.09 -2.3906,-0.231 -6.6015,-0.59 -6.6015,-6.797 0,-4.063 4.2109,-4.063 7.6093,-4.063 14.2188,0 14.2188,-2.148 14.2188,-4.609 0,-1.949 -2.8867,-13.789 -4.6094,-20.66 l -6.7891,-27.309 c -2.8203,-10 -18.9492,-74.883 -19.6484,-78.711 -1.4531,-7.218 -1.4531,-11.05 -1.4531,-14.449 0,-30.121 18.9922,-48.91 43.5625,-48.91 l 0.2695,8.168 c -14.4922,0 -22.7305,12.769 -22.7305,30.351 0,10.899 2.6485,21.008 10.8907,54.411 1.8007,5.629 1.8007,6.289 7.4687,12.781 11.3203,13 24.6018,19.527 35.2308,19.527 11.558,0 21.601,-8.679 21.601,-28.711 0,-12.187 -6.48,-42.347 -15.39,-59.609 -7.153,-14.457 -21.9496,-28.75 -37.0707,-28.75 l -0.2695,-8.168 c 37.0702,0 76.4372,40.238 76.4372,84.098 0,34.613 -23.976,49.421 -44.367,49.421 -15.5116,0 -28.5194,-8.519 -37.3515,-16.25 l 20.3907,82.379 z"
             inkscape:connector-curvature="0" />
          <path
             id="path3106"
             style="fill:#000000;fill-opacity:1;fill-rule:nonzero;stroke:none"
             d="m 294.961,743.52 0,3.332 -0.082,2.027 0,2.223 -0.149,2.269 -0.121,2.578 -0.23,2.692 -0.277,2.738 -0.43,2.973 -0.391,2.957 -0.621,3.011 -0.59,3.129 -0.859,3.039 -0.941,3.172 -1.008,3.16 -1.172,3.129 -1.449,2.973 -1.52,3.078 -1.723,2.891 -1.949,2.781 -2.109,2.726 -2.309,2.543 -1.293,1.207 -1.359,1.172 -1.367,1.129 -1.332,1.102 -1.559,1.008 -1.531,1.019 -1.602,0.942 -1.718,0.859 -1.68,0.859 -1.871,0.742 -1.879,0.7 -1.949,0.672 -1.95,0.5 -2.113,0.507 -2.148,0.43 -2.301,0.43 -2.27,0.269 -2.379,0.16 -2.5,0.161 -2.539,0 0,-6.957 c 15.661,0 26.95,-8 31.047,-22.891 3.051,-10.781 3.051,-28.473 3.051,-40.902 0,-14.368 0,-31.52 -3.129,-44.289 -5.621,-20.59 -22.461,-23.641 -30.969,-23.641 -7.812,0 -25.671,2.621 -30.941,24.07 -2.969,11.403 -3.238,26.52 -3.238,43.86 0,15.671 0,30.281 3.468,42.351 5.282,17.77 21.68,21.442 30.711,21.442 l 0,6.957 c -55.281,0 -55.281,-57.969 -55.281,-73.289 0,-15.391 0,-72.461 55.281,-72.461 55.27,0 55.27,57.07 55.27,72.461 z"
             inkscape:connector-curvature="0" />
          <path
             id="path3108"
             style="fill:#000000;fill-opacity:1;fill-rule:nonzero;stroke:none"
             d="m 113.52,293.52 0.07,0.082 0,0.199 0.121,0 0,0.148 0.078,0.16 0,0.2 0.082,0.152 0,0.16 0.078,0.188 0.071,0.16 0,0.203 0.082,0.148 0,0.239 0.117,0.351 0.16,0.43 0,0.148 0.07,0.282 0,0.152 0.082,0.199 0,0.149 0.117,0.16 0,0.351 0.082,0 0,0.43 c 0,1.527 -1.21,4.258 -4.769,4.258 -5.981,0 -30.5508,-2.379 -37.8516,-3.09 -2.3789,-0.231 -6.6406,-0.578 -6.6406,-6.789 0,-4.07 4.2617,-4.07 7.6523,-4.07 14.2187,0 14.2187,-2.141 14.2187,-4.598 0,-1.961 -2.8906,-13.75 -4.6093,-20.672 l -6.7891,-27.262 c -2.8203,-10.039 -18.9531,-74.929 -19.6523,-78.75 -1.4493,-7.226 -1.4493,-11.058 -1.4493,-14.457 0,-30.109 18.9883,-48.9021 43.5586,-48.9021 l 0.2305,8.1601 c -14.4492,0 -22.6875,12.77 -22.6875,30.352 0,10.898 2.6484,21.019 10.8984,54.418 1.75,5.621 1.75,6.293 7.461,12.769 11.3202,13.012 24.5702,19.57 35.1872,19.57 11.563,0 21.602,-8.668 21.602,-28.75 0,-12.148 -6.442,-42.339 -15.391,-59.609 -7.148,-14.449 -21.91,-28.75 -37.0701,-28.75 l -0.2305,-8.1601 c 37.0706,0 76.4416,40.2301 76.4416,84.1011 0,34.61 -23.981,49.411 -44.41,49.411 -15.469,0 -28.481,-8.512 -37.3089,-16.25 L 113.52,293.52 z"
             inkscape:connector-curvature="0" />
          <path
             id="path3110"
             style="fill:#000000;fill-opacity:1;fill-rule:nonzero;stroke:none"
             d="m 268.629,188.602 0,2.148 -0.109,0.238 0,0.782 -0.079,0.23 0,0.352 -0.082,0.16 0,0.187 -0.078,0.242 -0.082,0.27 -0.187,0.238 -0.082,0.27 -0.16,0.16 -0.192,0.152 -0.156,0.199 -0.231,0.149 -0.203,0.082 -0.226,0.078 -0.282,0.121 -0.351,0.078 -0.309,0.071 -0.351,0.082 -0.59,0 -0.188,0.078 -3.832,0 c -14.961,-13.52 -38.519,-13.52 -42.738,-13.52 l -3.59,0 0,-9.25 3.59,0 c 4.93,0 18.598,0.5 30.938,5.781 l 0,-105.8589 c 0,-6.4492 0,-8.9492 -22.457,-8.9492 l -10.622,0 0,-9.25 c 11.75,0.7773 30.622,0.7773 42.77,0.7773 12.422,0 31.289,0 42.852,-0.7773 l 0,9.25 -10.551,0 c -22.422,0 -22.422,2.5 -22.422,8.9492 l 0,116.4809 z"
             inkscape:connector-curvature="0" />
          <path
             id="path3112"
             style="fill:#000000;fill-opacity:1;fill-rule:nonzero;stroke:none"
             d="m 107.34,1680.24 -0.578,0.94 -0.59,0.86 -0.66,0.94 -0.633,0.82 -0.66,0.86 -0.778,0.78 -0.671,0.86 -0.782,0.74 -0.859,0.78 -0.738,0.74 -0.8598,0.79 -0.8593,0.66 -0.8203,0.7 -0.8633,0.67 -0.9375,0.58 -0.9297,0.63 -1.0195,0.58 -0.9414,0.51 -1.0118,0.59 -1.0195,0.43 -1.1289,0.43 -1.0195,0.43 -1.0899,0.43 -1.2109,0.31 -1.0899,0.35 -1.1796,0.27 -1.211,0.24 -1.25,0.19 -1.2109,0.16 -1.2891,0.08 -1.3281,0.08 -1.2813,0 0,-8.25 c 20.7383,0 26.4412,-22.46 26.4412,-25.74 0,-1.21 -0.703,-3.32 -0.941,-4.18 l -13.9416,-55.35 c -2.0273,-8.44 -8.5195,-14.22 -15.039,-20 -2.6602,-2.19 -14.6485,-11.8 -27.3789,-11.8 -10.9024,0 -21.5313,7.74 -21.5313,28.75 0,15.78 8.5196,48.36 15.4727,60.2 13.5195,23.71 28.6679,28.12 36.9179,28.12 l 0,8.25 c -37.8593,0 -76.449175,-41.72 -76.449175,-84.34 0,-28.75 19.300775,-49.14 44.808575,-49.14 15.9727,0 30.1914,9.1 42.0313,20.66 5.6601,-17.77 22.8475,-20.66 30.4995,-20.66 10.629,0 18.129,6.44 23.399,15.62 6.531,11.57 10.351,28.4 10.351,29.61 0,3.91 -3.82,3.91 -4.679,3.91 -4.223,0 -4.5,-1.21 -6.449,-9.18 -3.551,-14.22 -9.332,-31.8 -21.68,-31.8 -7.731,0 -9.883,6.53 -9.883,14.53 0,5 2.5,15.82 4.609,23.48 1.954,7.97 5,20.04 6.442,26.6 l 5.898,22.54 c 1.84,7.74 5.282,21.68 5.282,23.13 0,6.56 -5.282,9.45 -9.969,9.45 -5.031,0 -11.91,-3.59 -13.711,-11.84 z"
             inkscape:connector-curvature="0" />
          <path
             id="path3114"
             style="fill:#000000;fill-opacity:1;fill-rule:nonzero;stroke:none"
             d="m 250.391,1658.92 0,2.38 -0.121,0.15 0,0.59 -0.071,0.27 0,0.32 -0.078,0.19 0,0.16 -0.082,0.27 -0.078,0.24 -0.191,0.27 -0.079,0.23 -0.16,0.2 -0.152,0.16 -0.199,0.15 -0.16,0.2 -0.27,0.07 -0.23,0.08 -0.282,0.08 -0.308,0.08 -0.352,0.12 -0.348,0.07 -0.589,0 -0.161,0.08 -3.75,0 c -15.07,-13.51 -38.511,-13.51 -42.769,-13.51 l -3.672,0 0,-9.26 3.672,0 c 4.84,0 18.519,0.51 30.937,5.78 l 0,-105.86 c 0,-6.48 0,-8.94 -22.418,-8.94 l -10.671,0 0,-9.26 c 11.679,0.74 30.55,0.74 42.781,0.74 12.34,0 31.211,0 42.769,-0.74 l 0,9.26 -10.55,0 c -22.418,0 -22.418,2.46 -22.418,8.94 l 0,116.49 z"
             inkscape:connector-curvature="0" />
          <path
             id="path3116"
             style="fill:#000000;fill-opacity:1;fill-rule:nonzero;stroke:none"
             d="m 3502.11,1000.24 0,2.39 -0.08,0.19 0,0.59 -0.08,0.23 0,0.35 -0.07,0.16 0,0.2 -0.08,0.23 -0.08,0.27 -0.2,0.24 -0.07,0.27 -0.67,0.66 -0.27,0.12 -0.24,0.08 -0.27,0.08 -0.35,0.08 -0.31,0.07 -0.36,0.08 -0.58,0 -0.2,0.12 -3.71,0 c -15.08,-13.548 -38.51,-13.548 -42.77,-13.548 l -3.67,0 0,-9.262 3.67,0 c 4.84,0 18.51,0.512 30.94,5.781 l 0,-105.859 c 0,-6.453 0,-8.91 -22.46,-8.91 l -10.63,0 0,-9.293 c 11.64,0.781 30.55,0.781 42.77,0.781 12.35,0 31.21,0 42.78,-0.781 l 0,9.293 -10.55,0 c -22.46,0 -22.46,2.457 -22.46,8.91 l 0,116.478 z"
             inkscape:connector-curvature="0" />
          <path
             id="path3118"
             style="fill:#000000;fill-opacity:1;fill-rule:nonzero;stroke:none"
             d="m 3325.82,1890.48 1.84,1.72 1.79,1.6 1.76,1.56 1.72,1.56 1.64,1.45 1.6,1.4 1.56,1.41 1.49,1.33 1.48,1.29 1.49,1.21 2.81,2.42 1.33,1.06 1.4,1.17 2.62,2.07 2.5,2.07 2.46,1.91 2.42,1.84 2.39,1.83 4.8,3.56 2.46,1.87 2.42,1.76 c 0,0.31 22.86,17.15 36.18,28.6 35.04,29.57 43.2,44.8 43.2,45.93 0,3.21 -3.44,3.21 -4.1,3.21 -2.58,0 -3.71,-0.59 -5.55,-3.44 -11.05,-15.24 -18.75,-20.35 -27.69,-20.35 -8.91,0 -13.29,4.8 -18.83,10.15 -6.96,7.39 -13.21,13.64 -25.47,13.64 -27.66,0 -44.61,-29.46 -44.61,-36.14 0,-1.6 1.02,-3.43 4.45,-3.43 3.32,0 3.99,1.6 4.73,3.43 7.03,14.65 28.44,14.96 31.33,14.96 7.77,0 14.84,-2.26 23.28,-4.76 14.8,-4.77 18.87,-4.77 28.51,-4.77 -13.32,-13.63 -44.37,-36.56 -51.25,-41.6 l -33.28,-26.64 c -25.11,-21.25 -38.08,-39.34 -38.08,-41.56 0,-3.2 3.71,-3.2 4.37,-3.2 3.05,0 3.71,0.62 5.94,4.06 8.59,11.17 19.57,19.76 31.41,19.76 8.51,0 12.22,-2.93 21.4,-12.03 6.37,-6.68 12.97,-11.79 23.56,-11.79 36.6,0 58,40.31 58,48.86 0,1.56 -1.48,3.17 -4.37,3.17 -3.4,0 -4.06,-1.84 -5.23,-4.14 -8.48,-20.63 -32.04,-26.57 -44.34,-26.57 -7.23,0 -13.98,1.88 -21.76,4.1 -12.46,4.07 -18.01,5.36 -25.78,5.36 -0.74,0 -6.6,0 -10,-0.9 z"
             inkscape:connector-curvature="0" />
          <path
             id="path3120"
             style="fill:#000000;fill-opacity:1;fill-rule:nonzero;stroke:none"
             d="m 1692.5,2488.17 -0.74,-0.19 -0.71,-0.16 -0.66,-0.27 -0.66,-0.24 -0.63,-0.27 -0.66,-0.23 -1.17,-0.71 -0.55,-0.31 -0.59,-0.43 -0.51,-0.35 -0.5,-0.43 -0.43,-0.43 -0.51,-0.39 -0.43,-0.43 -0.43,-0.51 -0.39,-0.43 -1.05,-1.52 -0.24,-0.55 -0.35,-0.51 -0.24,-0.5 -0.19,-0.59 -0.24,-0.51 -0.19,-0.51 -0.08,-0.58 -0.15,-0.51 -0.08,-0.62 -0.12,-0.51 0,-1.1 c 0,-6.87 5.98,-9.61 9.8,-9.61 2.97,0 14.18,1.88 14.18,16.92 0,19.22 -21.25,25.78 -39.25,25.78 -46.25,0 -54.61,-34.02 -54.61,-43.2 0,-11.06 6.21,-18.01 10.39,-21.68 7.65,-5.94 13.01,-6.96 33.4,-10.63 6.29,-1.21 25.27,-4.76 25.27,-19.49 0,-5.08 -3.32,-16.41 -15.66,-23.79 -11.57,-6.56 -26.18,-6.56 -29.65,-6.56 -11.92,0 -28.83,2.73 -35.55,12.5 9.77,1.21 16.33,8.51 16.33,16.91 0,7.42 -5.39,10.9 -11.56,10.9 -8.68,0 -17.27,-6.8 -17.27,-19.8 0,-17.78 18.95,-28.68 47.7,-28.68 54.57,0 64.68,37.35 64.68,48.91 0,27.23 -30,32.5 -40.97,34.61 -2.62,0.59 -10.04,1.8 -11.8,2.3 -10.98,2.11 -16.33,8.33 -16.33,14.89 0,6.79 5.35,14.69 11.8,18.94 8.01,5.12 18.36,5.63 23.4,5.63 6.29,0 21.68,-0.94 28.2,-11.06 z"
             inkscape:connector-curvature="0" />
          <path
             id="path3122"
             style="fill:#000000;fill-opacity:1;fill-rule:nonzero;stroke:none"
             d="m 1852.3,2401.77 0,3.32 -0.11,2.03 0,2.23 -0.16,2.3 -0.08,2.54 -0.27,2.73 -0.23,2.7 -0.43,2.97 -0.43,3.01 -0.59,2.96 -0.59,3.13 -0.86,3.08 -0.93,3.13 -1.02,3.16 -1.21,3.13 -1.44,3.01 -1.53,3.04 -1.68,2.89 -1.99,2.82 -2.11,2.69 -2.3,2.58 -1.25,1.17 -1.37,1.21 -2.74,2.19 -3.04,2.03 -1.64,0.94 -1.68,0.86 -1.72,0.86 -1.88,0.78 -1.83,0.66 -1.99,0.67 -1.96,0.51 -2.11,0.54 -2.11,0.39 -2.3,0.43 -2.31,0.28 -2.38,0.15 -2.46,0.2 -2.54,0 0,-6.99 c 15.63,0 26.95,-8.01 31.02,-22.9 3.08,-10.78 3.08,-28.47 3.08,-40.89 0,-14.34 0,-31.53 -3.16,-44.3 -5.63,-20.55 -22.46,-23.63 -30.94,-23.63 -7.85,0 -25.7,2.65 -30.98,24.06 -2.96,11.41 -3.2,26.52 -3.2,43.87 0,15.66 0,30.27 3.48,42.34 5.27,17.77 21.68,21.45 30.7,21.45 l 0,6.99 c -55.27,0 -55.27,-58.01 -55.27,-73.32 0,-15.39 0,-72.42 55.27,-72.42 55.27,0 55.27,57.03 55.27,72.42 z"
             inkscape:connector-curvature="0" />
          <path
             id="path3124"
             style="fill:#000000;fill-opacity:1;fill-rule:nonzero;stroke:none"
             d="m 1724.1,206.57 -0.78,-0.191 -0.66,-0.16 -0.71,-0.231 -0.66,-0.277 -0.63,-0.27 -0.66,-0.242 -0.59,-0.347 -0.58,-0.313 -0.51,-0.348 -0.62,-0.429 -0.51,-0.352 -0.51,-0.43 -0.43,-0.429 -0.51,-0.391 -0.43,-0.43 -0.43,-0.511 -0.39,-0.43 -1.05,-1.519 -0.24,-0.508 -0.35,-0.551 -0.23,-0.512 -0.2,-0.578 -0.23,-0.512 -0.2,-0.507 -0.08,-0.582 -0.15,-0.508 -0.08,-0.59 -0.08,-0.543 0,-1.098 c 0,-6.871 5.94,-9.609 9.77,-9.609 2.97,0 14.18,1.879 14.18,16.918 0,19.219 -21.25,25.781 -39.26,25.781 -46.25,0 -54.61,-34.019 -54.61,-43.199 0,-11.063 6.21,-18.012 10.39,-21.684 7.66,-5.937 13.01,-6.957 33.4,-10.629 6.29,-1.211 25.27,-4.757 25.27,-19.449 0,-5.121 -3.32,-16.449 -15.66,-23.832 -11.56,-6.558 -26.17,-6.558 -29.65,-6.558 -11.91,0 -28.83,2.73 -35.55,12.5 9.77,1.21 16.33,8.511 16.33,16.949 0,7.383 -5.35,10.859 -11.56,10.859 -8.67,0 -17.27,-6.797 -17.27,-19.808 0,-17.77 18.95,-28.6684 47.7,-28.6684 54.57,0 64.69,37.3474 64.69,48.9104 0,27.226 -30,32.5 -40.98,34.609 -2.62,0.578 -10.04,1.801 -11.8,2.301 -10.97,2.109 -16.33,8.316 -16.33,14.887 0,6.793 5.36,14.679 11.8,18.941 8.01,5.121 18.36,5.629 23.4,5.629 6.29,0 21.68,-0.938 28.24,-11.059 z"
             inkscape:connector-curvature="0" />
          <path
             id="path3126"
             style="fill:#000000;fill-opacity:1;fill-rule:nonzero;stroke:none"
             d="m 1840.9,187.078 0,2.152 -0.08,0.231 0,0.777 -0.08,0.242 0,0.348 -0.08,0.16 0,0.192 -0.07,0.242 -0.12,0.269 -0.16,0.231 -0.08,0.277 -0.5,0.5 -0.28,0.16 -0.15,0.121 -0.28,0.079 -0.23,0.07 -0.35,0.082 -0.32,0.078 -0.35,0.082 -0.58,0 -0.2,0.117 -3.75,0 C 1818.2,179.93 1794.65,179.93 1790.39,179.93 l -3.55,0 0,-9.258 3.55,0 c 4.96,0 18.63,0.508 30.98,5.777 l 0,-105.8474 c 0,-6.4532 0,-8.9102 -22.46,-8.9102 l -10.63,0 0,-9.3008 c 11.72,0.7813 30.63,0.7813 42.77,0.7813 12.43,0 31.29,0 42.86,-0.7813 l 0,9.3008 -10.55,0 c -22.46,0 -22.46,2.457 -22.46,8.9102 l 0,116.4764 z"
             inkscape:connector-curvature="0" />
          <path
             id="path3128"
             style="fill:#000000;fill-opacity:1;fill-rule:nonzero;stroke:none"
             d="m 1706.68,1044.5 -0.74,-0.15 -0.71,-0.2 -0.66,-0.23 -0.7,-0.28 -0.59,-0.23 -0.66,-0.28 -0.59,-0.35 -0.62,-0.31 -0.51,-0.35 -0.59,-0.43 -0.51,-0.35 -0.5,-0.39 -0.43,-0.43 -0.51,-0.43 -0.43,-0.43 -0.43,-0.51 -0.43,-0.43 -0.31,-0.51 -0.71,-1.01 -0.23,-0.51 -0.35,-0.51 -0.27,-0.51 -0.16,-0.62 -0.24,-0.51 -0.19,-0.51 -0.08,-0.58 -0.15,-0.51 -0.12,-0.59 -0.08,-0.5 0,-1.14 c 0,-6.87 5.98,-9.61 9.8,-9.61 2.97,0 14.18,1.88 14.18,16.96 0,19.21 -21.25,25.74 -39.29,25.74 -46.25,0 -54.57,-34.03 -54.57,-43.2 0,-11.06 6.21,-18.01 10.39,-21.678 7.61,-5.942 13.01,-6.961 33.4,-10.633 6.29,-1.168 25.27,-4.769 25.27,-19.449 0,-5.121 -3.32,-16.41 -15.66,-23.828 -11.57,-6.524 -26.18,-6.524 -29.69,-6.524 -11.88,0 -28.83,2.692 -35.55,12.5 9.81,1.172 16.33,8.473 16.33,16.91 0,7.383 -5.35,10.864 -11.56,10.864 -8.68,0 -17.27,-6.801 -17.27,-19.813 0,-17.769 18.99,-28.629 47.74,-28.629 54.57,0 64.68,37.309 64.68,48.871 0,27.229 -30,32.499 -40.97,34.609 -2.66,0.58 -10.04,1.8 -11.84,2.3 -10.94,2.11 -16.33,8.32 -16.33,14.89 0,6.79 5.39,14.68 11.84,18.94 8.01,5.12 18.36,5.63 23.4,5.63 6.29,0 21.68,-0.94 28.2,-11.06 z"
             inkscape:connector-curvature="0" />
          <path
             id="path3130"
             style="fill:#000000;fill-opacity:1;fill-rule:nonzero;stroke:none"
             d="m 1863.91,931.262 -8.95,0 c -0.58,-4.102 -2.69,-17.114 -6.01,-19.223 -1.8,-1.367 -19.57,-1.367 -22.78,-1.367 l -41.4,0 c 13.9,10.348 29.57,22.187 42.34,30.707 19.02,13.16 36.8,25.5 36.8,47.93 0,27.141 -25.59,42.111 -55.94,42.111 -28.59,0 -49.57,-16.61 -49.57,-37.35 0,-10.968 9.33,-12.808 12.42,-12.808 5.66,0 12.46,3.789 12.46,12.5 0,7.538 -5.58,11.798 -12.15,12.458 5.86,9.53 18.28,15.94 32.5,15.94 20.39,0 37.58,-12.35 37.58,-33.09 0,-17.769 -12.26,-31.371 -28.59,-45.148 l -51.68,-43.871 c -2.11,-1.879 -2.23,-1.879 -2.54,-3.321 l 0,-6.371 98.44,0 7.07,40.903 z"
             inkscape:connector-curvature="0" />
          <path
             id="path3132"
             style="fill:#000000;fill-opacity:1;fill-rule:nonzero;stroke:none"
             d="m 1708.52,1768.17 -0.79,-0.19 -0.66,-0.16 -0.66,-0.27 -0.71,-0.24 -0.58,-0.27 -0.67,-0.23 -0.62,-0.36 -0.59,-0.35 -0.51,-0.31 -0.58,-0.43 -0.51,-0.35 -0.51,-0.43 -0.43,-0.43 -0.5,-0.39 -0.43,-0.43 -0.43,-0.51 -0.43,-0.43 -0.36,-0.51 -0.31,-0.5 -0.35,-0.51 -0.27,-0.55 -0.32,-0.51 -0.27,-0.5 -0.15,-0.59 -0.28,-0.51 -0.15,-0.51 -0.08,-0.58 -0.2,-0.51 -0.08,-0.62 -0.07,-0.51 0,-1.1 c 0,-6.87 5.93,-9.61 9.76,-9.61 3.01,0 14.22,1.88 14.22,16.92 0,19.22 -21.25,25.78 -39.3,25.78 -46.25,0 -54.57,-34.02 -54.57,-43.2 0,-11.06 6.21,-18.01 10.35,-21.68 7.66,-5.94 13.01,-6.96 33.44,-10.63 6.29,-1.21 25.24,-4.76 25.24,-19.49 0,-5.08 -3.32,-16.41 -15.63,-23.79 -11.56,-6.56 -26.21,-6.56 -29.69,-6.56 -11.91,0 -28.82,2.73 -35.54,12.5 9.8,1.21 16.32,8.51 16.32,16.91 0,7.42 -5.35,10.9 -11.56,10.9 -8.67,0 -17.26,-6.8 -17.26,-19.8 0,-17.78 18.98,-28.68 47.69,-28.68 54.61,0 64.73,37.35 64.73,48.91 0,27.23 -30,32.5 -40.98,34.61 -2.65,0.59 -10.04,1.8 -11.83,2.3 -10.98,2.11 -16.33,8.33 -16.33,14.89 0,6.79 5.35,14.69 11.83,18.94 7.97,5.12 18.36,5.63 23.36,5.63 6.29,0 21.68,-0.94 28.25,-11.06 z"
             inkscape:connector-curvature="0" />
          <path
             id="path3134"
             style="fill:#000000;fill-opacity:1;fill-rule:nonzero;stroke:none"
             d="m 1810.9,1684.15 1.8,0 1.75,-0.16 1.72,-0.19 1.68,-0.24 1.64,-0.27 1.6,-0.43 1.61,-0.39 1.44,-0.51 1.45,-0.62 1.44,-0.67 1.37,-0.7 1.29,-0.74 1.29,-0.86 1.17,-0.94 1.21,-0.94 1.09,-1.01 1.02,-1.1 0.94,-1.09 0.93,-1.29 0.86,-1.21 0.75,-1.33 0.78,-1.36 0.66,-1.45 0.59,-1.52 0.5,-1.57 0.55,-1.6 0.31,-1.72 0.36,-1.68 0.23,-1.79 0.19,-1.88 0.16,-1.87 0,-1.96 c 0,-21.68 -13.24,-33.04 -32.15,-33.04 -2.38,0 -27.61,0 -38.4,11.05 8.75,1.25 11.29,7.81 11.29,12.81 0,7.86 -5.93,13.01 -13,13.01 -6.8,0 -13.01,-4.49 -13.01,-13.44 0,-21.99 25,-32.1 53.63,-32.1 34.88,0 56.48,20.97 56.48,41.48 0,17.42 -15.58,32.3 -39.72,37.73 25.51,8.17 32.3,24.42 32.3,36.25 0,17.43 -21.68,30.28 -48.36,30.28 -26.01,0 -47.03,-10.98 -47.03,-30.12 0,-9.96 8.09,-12.5 12.07,-12.5 6.14,0 12.07,4.49 12.07,12.07 0,4.92 -2.46,10.9 -10.04,12.07 9.03,9.69 27.89,10.39 32.23,10.39 15.59,0 26.64,-7.85 26.64,-22.19 0,-12.34 -8.16,-31.64 -30.35,-32.85 -5.98,-0.23 -6.72,-0.31 -12.34,-0.66 -2.23,-0.28 -4.69,-0.35 -4.69,-3.56 0,-3.59 2.15,-3.59 6.05,-3.59 l 13.95,0 z"
             inkscape:connector-curvature="0" />
          <path
             id="path3136"
             style="fill:#000000;fill-opacity:1;fill-rule:nonzero;stroke:none"
             d="m 2580.9,540.629 0,0.281 0.12,0.149 0,0.16 0.07,0.269 0.08,0.242 0,0.348 0.08,0.352 0.08,0.308 0.08,0.364 0.11,0.418 0.16,0.429 0.08,0.512 0.08,0.43 0.27,1.019 0.23,1.09 0.36,1.129 0.27,1.18 0.31,1.293 0.35,1.25 0.35,1.277 0.67,2.621 0.7,2.66 0.31,1.36 0.36,1.25 0.35,1.218 0.23,1.172 0.35,1.129 0.51,2.031 0.16,0.508 0.11,0.434 0.16,0.859 0.16,0.309 0.07,0.351 0.2,0.59 0.08,0.27 0,0.238 0.08,0.191 0.07,0.16 0,0.149 c 0.71,2.391 9.18,17.191 18.79,24.34 3.17,2.301 11.18,8.242 23.91,8.242 2.89,0 10.39,-0.231 16.33,-4.063 -9.53,-2.726 -13.01,-11.046 -13.01,-16.41 0,-6.476 5,-10.886 11.84,-10.886 6.79,0 16.56,5.617 16.56,18.117 0,15.39 -16.33,21.48 -31.45,21.48 -15.39,0 -28.67,-6.09 -41.75,-20.969 -5.28,18.008 -23.4,20.969 -30.55,20.969 -10.86,0 -18.36,-6.789 -23.13,-15.027 -6.79,-11.57 -10.86,-28.832 -10.86,-30.281 0,-3.832 4.07,-3.832 5,-3.832 4.18,0 4.42,0.941 6.57,8.832 4.41,18.129 10.11,32.07 21.68,32.07 7.65,0 9.68,-6.52 9.68,-14.449 0,-5.782 -2.73,-16.684 -4.84,-24.571 -1.95,-8.171 -4.84,-20.242 -6.48,-26.722 l -9.42,-37.969 c -1.21,-3.75 -2.89,-11.25 -2.89,-12.191 0,-6.438 5.27,-9.329 10.04,-9.329 4.41,0 10.35,2.622 12.66,8.469 0.66,1.801 3.82,14.891 5.7,22.313 l 7.97,31.867 z"
             inkscape:connector-curvature="0" />
          <path
             id="path3138"
             style="fill:#000000;fill-opacity:1;fill-rule:nonzero;stroke:none"
             d="m 2795.7,505.789 0,3.281 -0.08,2.071 0,2.187 -0.19,2.301 -0.08,2.543 -0.23,2.738 -0.28,2.731 -0.86,5.937 -0.58,2.973 -0.59,3.16 -0.86,3.051 -0.93,3.16 -1.02,3.129 -1.17,3.16 -1.45,2.969 -1.56,3.05 -1.68,2.891 -1.95,2.809 -2.15,2.742 -2.27,2.527 -1.29,1.223 -1.28,1.168 -1.45,1.09 -1.37,1.129 -3.04,2.043 -1.61,0.929 -1.71,0.86 -1.68,0.82 -1.88,0.777 -1.87,0.672 -1.96,0.699 -1.95,0.512 -2.15,0.508 -2.11,0.43 -2.3,0.429 -2.31,0.231 -2.38,0.203 -2.46,0.148 -2.54,0 0,-6.992 c 15.66,0 26.95,-7.969 31.02,-22.848 3.08,-10.82 3.08,-28.48 3.08,-40.902 0,-14.379 0,-31.558 -3.16,-44.297 -5.59,-20.582 -22.42,-23.633 -30.94,-23.633 -7.81,0 -25.66,2.622 -30.94,24.063 -3.01,11.367 -3.24,26.527 -3.24,43.867 0,15.621 0,30.274 3.48,42.344 5.27,17.777 21.68,21.406 30.7,21.406 l 0,6.992 c -55.27,0 -55.27,-58.011 -55.27,-73.281 0,-15.391 0,-72.461 55.27,-72.461 55.27,0 55.27,57.07 55.27,72.461 z"
             inkscape:connector-curvature="0" />
          <path
             id="path3140"
             style="fill:#000000;fill-opacity:1;fill-rule:nonzero;stroke:none"
             d="m 1245.59,2264.11 -9.93,0.24 c 0,-26.18 -10.39,-50.32 -25.78,-66.41 l -66.48,66.17 -6.99,-7.23 66.25,-66.4 c -12.07,-10.9 -34.96,-25.35 -66.25,-25.35 -31.53,0 -54.22,14.45 -66.49,25.35 l 66.49,66.4 6.99,7.23 66.48,66.25 c 16.17,-16.84 25.78,-41.68 25.78,-66.01 l 9.93,-0.24 c 0,60.7 -49.38,109.18 -109.18,109.18 l 0,-9.96 c 31.29,0 54.18,-14.61 66.25,-25.51 l -66.25,-66.4 -7.23,-7.07 -66.21,-66.41 c -16.45,16.83 -25.86,41.83 -25.86,66.17 0,26.02 10.35,50.35 25.86,66.25 l 66.21,-66.01 7.23,7.07 -66.49,66.4 c 12.27,10.9 34.96,25.51 66.49,25.51 l 0,9.96 c -60.43,0 -109.34,-49.41 -109.34,-108.94 0,-60.71 49.41,-109.34 109.34,-109.34 60.47,0 109.18,49.41 109.18,109.1 z"
             inkscape:connector-curvature="0" />
          <path
             id="path3142"
             style="fill:#000000;fill-opacity:1;fill-rule:nonzero;stroke:none"
             d="m 2986.21,1932.78 -9.96,-4.76 c -2.38,-48.91 -41.56,-91.06 -94.22,-94.22 l -10.12,0 c -52.69,3.16 -91.91,45.31 -94.18,94.22 l 94.18,0 0,10.04 10.12,0 0,93.94 c 54.26,-3.32 92.35,-47.69 93.79,-93.94 l -197.77,0 c 1.44,46.25 39.29,90.62 93.86,93.94 l 0,-198.2 10.12,0 0,94.22 94.22,0 9.96,4.76 c 0,60.71 -49.41,109.18 -109.18,109.18 -60.47,0 -109.33,-49.41 -109.33,-108.94 0,-60.71 49.37,-109.34 109.33,-109.34 60.47,0 109.18,49.42 109.18,109.1 z"
             inkscape:connector-curvature="0" />
          <path
             id="path3144"
             style="fill:#000000;fill-opacity:1;fill-rule:nonzero;stroke:none"
             d="m 1250.2,1552.08 -9.93,0.23 c 0,-26.17 -10.39,-50.35 -25.78,-66.4 l -66.48,66.17 -6.99,-7.27 66.25,-66.4 c -12.07,-10.86 -34.97,-25.31 -66.25,-25.31 -31.53,0 -54.22,14.45 -66.49,25.31 l 66.49,66.4 6.99,7.27 66.48,66.21 c 16.17,-16.84 25.78,-41.64 25.78,-65.98 l 9.93,-0.23 c 0,60.7 -49.38,109.14 -109.18,109.14 l 0,-9.92 c 31.28,0 54.18,-14.65 66.25,-25.51 l -66.25,-66.41 -7.23,-7.07 -66.21,-66.4 c -16.41,16.83 -25.86,41.83 -25.86,66.17 0,26.02 10.39,50.31 25.86,66.21 l 66.21,-65.98 7.23,7.07 -66.49,66.41 c 12.27,10.86 34.96,25.51 66.49,25.51 l 0,9.92 c -60.43,0 -109.34,-49.37 -109.34,-108.91 0,-60.7 49.41,-109.33 109.34,-109.33 60.46,0 109.18,49.37 109.18,109.1 z"
             inkscape:connector-curvature="0" />
          <path
             id="path3146"
             style="fill:#000000;fill-opacity:1;fill-rule:nonzero;stroke:none"
             d="m 1248.83,870.199 -9.92,0.242 c 0,-26.171 -10.39,-50.312 -25.79,-66.41 l -66.48,66.168 -6.95,-7.219 66.21,-66.41 c -12.07,-10.898 -34.92,-25.351 -66.21,-25.351 -31.57,0 -54.26,14.453 -66.53,25.351 l 66.53,66.41 6.95,7.219 66.48,66.223 c 16.18,-16.844 25.79,-41.652 25.79,-65.981 l 9.92,-0.242 c 0,60.711 -49.38,109.18 -109.14,109.18 l 0,-9.957 c 31.29,0 54.14,-14.652 66.21,-25.5 l -66.21,-66.41 -7.23,-7.071 -66.25,-66.41 c -16.41,16.84 -25.86,41.84 -25.86,66.168 0,26.02 10.39,50.321 25.86,66.223 l 66.25,-65.981 7.23,7.071 -66.53,66.41 c 12.27,10.848 34.96,25.5 66.53,25.5 l 0,9.957 c -60.47,0 -109.38,-49.41 -109.38,-108.938 0,-60.703 49.42,-109.339 109.38,-109.339 60.43,0 109.14,49.418 109.14,109.097 z"
             inkscape:connector-curvature="0" />
          <path
             id="path3148"
             style="fill:#000000;fill-opacity:1;fill-rule:nonzero;stroke:none"
             d="m 1250.2,184.07 -9.93,0.239 c 0,-26.18 -10.39,-50.321 -25.78,-66.411 l -66.48,66.172 -6.99,-7.218 66.25,-66.411 c -12.07,-10.9019 -34.97,-25.3512 -66.25,-25.3512 -31.53,0 -54.22,14.4493 -66.49,25.3512 l 66.49,66.411 6.99,7.218 66.48,66.211 c 16.17,-16.832 25.78,-41.64 25.78,-65.972 l 9.93,-0.239 c 0,60.7 -49.38,109.18 -109.18,109.18 l 0,-9.961 c 31.28,0 54.18,-14.609 66.25,-25.508 l -66.25,-66.402 -7.23,-7.07 -66.21,-66.411 c -16.41,16.84 -25.86,41.84 -25.86,66.172 0,26.02 10.39,50.309 25.86,66.211 l 66.21,-65.972 7.23,7.07 -66.49,66.402 c 12.27,10.899 34.96,25.508 66.49,25.508 l 0,9.961 c -60.43,0 -109.34,-49.41 -109.34,-108.941 0,-60.707 49.41,-109.3402 109.34,-109.3402 60.46,0 109.18,49.4102 109.18,109.1012 z"
             inkscape:connector-curvature="0" />
          <path
             id="path3150"
             style="fill:#000000;fill-opacity:1;fill-rule:nonzero;stroke:none"
             d="m 2120.86,529.422 -9.96,-4.762 c -2.38,-48.91 -41.56,-91.058 -94.22,-94.219 l -10.12,0 c -52.69,3.161 -91.91,45.309 -94.22,94.219 l 94.22,0 0,10.039 10.12,0 0,93.942 c 54.26,-3.321 92.34,-47.692 93.79,-93.942 l -197.77,0 c 1.44,46.25 39.29,90.621 93.86,93.942 l 0,-198.2 10.12,0 0,94.219 94.22,0 9.96,4.762 c 0,60.707 -49.41,109.18 -109.18,109.18 -60.47,0 -109.38,-49.411 -109.38,-108.903 0,-60.75 49.42,-109.379 109.38,-109.379 60.43,0 109.18,49.418 109.18,109.102 z"
             inkscape:connector-curvature="0" />
          <path
             id="path3152"
             style="fill:#000000;fill-opacity:1;fill-rule:nonzero;stroke:none"
             d="m 2983.55,975.52 -9.96,-4.731 c -2.38,-48.91 -41.56,-91.09 -94.21,-94.219 l -10.12,0 c -52.7,3.129 -91.92,45.309 -94.22,94.219 l 94.22,0 0,10 10.12,0 0,93.981 c 54.25,-3.32 92.34,-47.69 93.78,-93.981 l -197.77,0 c 1.45,46.291 39.3,90.661 93.87,93.981 l 0,-198.2 10.12,0 0,94.219 94.21,0 9.96,4.731 c 0,60.74 -49.41,109.18 -109.17,109.18 -60.47,0 -109.38,-49.38 -109.38,-108.911 0,-60.699 49.41,-109.34 109.38,-109.34 60.42,0 109.17,49.379 109.17,109.071 z"
             inkscape:connector-curvature="0" />
        </g>
      </g>
    </g>
    <path
       inkscape:connector-curvature="0"
       id="path3227"
       d="m 149.14286,376.36218 -22.85715,0 0,128.57143 25.71429,0"
       style="fill:none;stroke:#000000;stroke-width:1.13199997;stroke-linecap:butt;stroke-linejoin:miter;stroke-opacity:0.92265193999999995;stroke-miterlimit:4;stroke-dasharray:none" />
    <path
       inkscape:connector-curvature="0"
       id="path3227-2"
       d="m 150,559.50504 -22.85715,0 0,128.57143 25.71429,0"
       style="fill:none;stroke:#000000;stroke-width:1.132;stroke-linecap:butt;stroke-linejoin:miter;stroke-opacity:0.98342543999999998;stroke-miterlimit:4;stroke-dasharray:none" />
    <path
       inkscape:transform-center-y="-307.24727"
       inkscape:transform-center-x="-704.93615"
       inkscape:connector-curvature="0"
       id="path3227-0"
       d="m 596.33701,422.42814 22.73989,0 0,165.58236 -25.58237,0"
       style="fill:none;stroke:#000000;stroke-width:1.13192558px;stroke-linecap:butt;stroke-linejoin:miter;stroke-opacity:0.87292822" />
    <g
       style="font-style:normal;font-variant:normal;font-weight:normal;font-stretch:normal;letter-spacing:normal;word-spacing:normal;text-anchor:start;fill:#000000;fill-opacity:1;stroke:#000000;stroke-linecap:butt;stroke-linejoin:miter;stroke-miterlimit:10.43299961;stroke-opacity:1;stroke-dasharray:none;stroke-dashoffset:0"
       id="content"
       transform="matrix(1.0629921,0,0,-1.0629921,-408.88076,877.84308)"
       xml:space="preserve"
       stroke-miterlimit="10.433"
       font-style="normal"
       font-variant="normal"
       font-weight="normal"
       font-stretch="normal"
       font-size-adjust="none"
       letter-spacing="normal"
       word-spacing="normal"><path
         style="fill:#000000;fill-opacity:1;stroke-width:0"
         inkscape:connector-curvature="0"
         d="m 464.44,411.93 -0.19,-0.3 -0.18,-0.29 -0.19,-0.28 -0.19,-0.26 -0.18,-0.25 -0.19,-0.23 -0.19,-0.22 -0.18,-0.21 -0.19,-0.2 -0.19,-0.18 -0.18,-0.17 -0.19,-0.16 -0.19,-0.15 -0.18,-0.14 -0.19,-0.13 -0.19,-0.12 -0.19,-0.11 -0.19,-0.1 -0.19,-0.09 -0.19,-0.09 -0.19,-0.07 -0.2,-0.07 -0.19,-0.07 -0.2,-0.05 -0.19,-0.05 -0.2,-0.04 -0.2,-0.04 -0.19,-0.03 -0.41,-0.05 -0.4,-0.03 c -0.61,-0.05 -1.05,-0.05 -1.05,-1 0,-0.3 0.25,-0.55 0.64,-0.55 1.34,0 2.89,0.16 4.28,0.16 1.64,0 3.39,-0.16 4.99,-0.16 0.29,0 0.95,0 0.95,0.95 0,0.55 -0.45,0.6 -0.8,0.6 -1.15,0.09 -2.34,0.5 -2.34,1.73 0,0.61 0.3,1.16 0.69,1.84 l 3.79,6.39 h 12.5 l -0.14,1.54 h -11.42 l 9.83,16.45 1.59,-16.45 0.14,-1.54 c 0.11,-1.04 0.8,-7.82 0.8,-8.32 0,-1.5 -2.59,-1.64 -3.58,-1.64 -0.7,0 -1.2,0 -1.2,-1 0,-0.55 0.59,-0.55 0.7,-0.55 2.03,0 4.19,0.16 6.22,0.16 1.25,0 4.39,-0.16 5.64,-0.16 0.3,0 0.89,0 0.89,1 0,0.55 -0.5,0.55 -1.14,0.55 -3.09,0 -3.09,0.34 -3.25,1.79 l -3.03,31.13 c -0.11,1 -0.11,1.2 -0.95,1.2 -0.8,0 -0.99,-0.34 -1.3,-0.84 z"
         id="path3337" /></g>    <g
       word-spacing="normal"
       letter-spacing="normal"
       font-size-adjust="none"
       font-stretch="normal"
       font-weight="normal"
       font-variant="normal"
       font-style="normal"
       stroke-miterlimit="10.433"
       xml:space="preserve"
       transform="matrix(1.0629921,0,0,-1.0629921,-410.30933,1060.7002)"
       id="g3505"
       style="font-style:normal;font-variant:normal;font-weight:normal;font-stretch:normal;letter-spacing:normal;word-spacing:normal;text-anchor:start;fill:#000000;fill-opacity:1;stroke:#000000;stroke-linecap:butt;stroke-linejoin:miter;stroke-miterlimit:10.43299961;stroke-opacity:1;stroke-dasharray:none;stroke-dashoffset:0"><path
         id="path3507"
         d="m 463.49,410.09 -0.05,-0.18 -0.04,-0.17 -0.05,-0.16 -0.04,-0.15 -0.04,-0.15 -0.05,-0.13 -0.05,-0.13 -0.05,-0.12 -0.05,-0.11 -0.06,-0.11 -0.07,-0.1 -0.07,-0.09 -0.07,-0.09 -0.09,-0.07 -0.09,-0.08 -0.11,-0.06 -0.11,-0.07 -0.13,-0.05 -0.13,-0.05 -0.15,-0.05 -0.16,-0.04 -0.09,-0.02 -0.09,-0.01 -0.09,-0.02 -0.1,-0.02 -0.1,-0.01 -0.1,-0.01 -0.11,-0.01 -0.12,-0.02 -0.11,-0.01 -0.13,-0.01 -0.12,0 -0.13,-0.01 -0.14,-0.01 -0.14,0 -0.14,-0.01 -0.15,0 -0.16,-0.01 -0.16,0 -0.16,0 -0.17,0 -0.18,0 -0.18,0 c -0.85,0 -1.35,0 -1.35,-1 0,-0.55 0.46,-0.55 1.35,-0.55 h 17.78 c 7.87,0 13.75,5.87 13.75,10.76 0,3.58 -2.89,6.47 -7.72,7.02 5.19,0.95 10.42,4.64 10.42,9.38 0,3.68 -3.3,6.87 -9.28,6.87 l -0.69,-1.55 c 4.38,0 5.42,-2.93 5.42,-5.12 0,-4.39 -4.28,-9.13 -10.35,-9.13 h -7.27 l -0.3,-1.09 h 9.41 c 4.78,0 5.73,-3.69 5.73,-5.83 0,-4.94 -4.43,-9.76 -10.31,-9.76 h -6.78 c -0.69,0 -0.8,0 -1.09,0.04 -0.5,0.05 -0.64,0.1 -0.64,0.5 0,0.14 0,0.25 0.25,1.14 l 3.43,13.91 0.3,1.09 3.08,12.36 c 0.45,1.74 0.54,1.89 2.7,1.89 h 6.42 l 0.69,1.55 h -16.73 c -0.94,0 -1.44,0 -1.44,-1 0,-0.55 0.44,-0.55 1.39,-0.55 0.09,0 1.05,0 1.89,-0.09 0.89,-0.11 1.34,-0.16 1.34,-0.8 0,-0.2 -0.04,-0.36 -0.2,-0.95 z"
         inkscape:connector-curvature="0"
         style="fill:#000000;fill-opacity:1;stroke-width:0" /></g>    <g
       style="font-style:normal;font-variant:normal;font-weight:normal;font-stretch:normal;letter-spacing:normal;word-spacing:normal;text-anchor:start;fill:#000000;fill-opacity:1;stroke:#000000;stroke-linecap:butt;stroke-linejoin:miter;stroke-miterlimit:10.43299961;stroke-opacity:1;stroke-dasharray:none;stroke-dashoffset:0"
       id="g3681"
       transform="matrix(1.0629921,0,0,-1.0629921,142.54781,960.70022)"
       xml:space="preserve"
       stroke-miterlimit="10.433"
       font-style="normal"
       font-variant="normal"
       font-weight="normal"
       font-stretch="normal"
       font-size-adjust="none"
       letter-spacing="normal"
       word-spacing="normal"><path
         style="fill:#000000;fill-opacity:1;stroke-width:0"
         inkscape:connector-curvature="0"
         d="m 491.39,439.03 0.01,0.04 0.01,0.04 0.01,0.04 0.02,0.04 0.01,0.04 0.01,0.05 0.01,0.04 0.01,0.05 0.01,0.04 0.01,0.05 0.01,0.05 0.01,0.05 0.01,0.05 0,0.06 0,0.05 0,0.03 0.01,0.03 c 0,0.45 -0.25,0.45 -1.24,0.45 h -21.03 c -1.19,0 -1.25,-0.05 -1.55,-1 l -2.73,-8.97 c -0.11,-0.25 -0.16,-0.59 -0.16,-0.7 0,-0.05 0,-0.55 0.61,-0.55 0.44,0 0.55,0.36 0.64,0.5 1.89,5.89 4.49,9.17 12.25,9.17 h 8.13 l -27.85,-31.14 c 0,-0.04 -0.2,-0.75 -0.2,-0.89 0,-0.45 0.34,-0.45 1.25,-0.45 h 21.67 c 1.19,0 1.24,0.05 1.55,1 l 3.53,11 c 0.05,0.2 0.2,0.56 0.2,0.75 0,0.25 -0.2,0.55 -0.65,0.55 -0.44,0 -0.5,-0.19 -0.85,-1.24 -2.18,-6.78 -4.57,-10.37 -13.04,-10.37 h -8.53 z"
         id="path3683" /></g>  </g>
</svg>
